<svg width="633" height="226" viewBox="0 0 633 226" fill="none" xmlns="http://www.w3.org/2000/svg">
<rect width="633" height="226" fill="#00A066"/>
<path d="M177.883 112.062C177.883 108.807 178.273 105.568 179.055 102.346C179.836 99.0905 180.975 95.998 182.473 93.0684C183.97 90.1061 185.809 87.3717 187.99 84.8652C190.204 82.3262 192.727 80.1289 195.559 78.2734C198.391 76.418 201.516 74.9694 204.934 73.9277C208.352 72.8535 212.046 72.3164 216.018 72.3164C219.468 72.3164 222.707 72.5605 225.734 73.0488C228.794 73.5046 231.496 74.0091 233.84 74.5625C236.574 75.2135 239.097 75.9622 241.408 76.8086L239.553 95.2656H234.523L232.082 84.6699C230.747 83.5957 229.266 82.7331 227.639 82.082C226.011 81.431 224.286 80.9264 222.463 80.5684C220.673 80.2103 218.833 79.9824 216.945 79.8848C215.057 79.7546 213.218 79.6895 211.428 79.6895C210.093 79.6895 208.71 79.8359 207.277 80.1289C205.845 80.3893 204.445 80.7799 203.078 81.3008C201.711 81.7891 200.441 82.375 199.27 83.0586C198.098 83.7096 197.105 84.4258 196.291 85.207C195.217 86.6068 194.208 88.1367 193.264 89.7969C192.352 91.4245 191.555 93.1986 190.871 95.1191C190.188 97.0072 189.65 99.0254 189.26 101.174C188.869 103.29 188.674 105.52 188.674 107.863C188.674 110.826 188.934 113.723 189.455 116.555C189.976 119.387 190.741 122.056 191.75 124.562C192.792 127.069 194.094 129.396 195.656 131.545C197.219 133.661 199.025 135.484 201.076 137.014C203.127 138.544 205.422 139.748 207.961 140.627C210.533 141.473 213.348 141.896 216.408 141.896C218.101 141.896 219.566 141.864 220.803 141.799C222.072 141.734 223.212 141.636 224.221 141.506C225.262 141.343 226.239 141.132 227.15 140.871C228.094 140.611 229.087 140.285 230.129 139.895V120.217L220.998 117.531V113.479H245.461V117.531C244.712 117.727 244.029 117.954 243.41 118.215C242.792 118.443 242.255 118.736 241.799 119.094C241.376 119.452 241.034 119.891 240.773 120.412C240.513 120.9 240.383 121.503 240.383 122.219V132.424L240.773 142.189C237.486 144.045 234.263 145.445 231.105 146.389C227.98 147.3 225.132 147.951 222.561 148.342C220.021 148.732 217.873 148.928 216.115 148.928C214.39 148.96 213.316 148.977 212.893 148.977C209.051 148.977 205.52 148.505 202.297 147.561C199.074 146.584 196.161 145.249 193.557 143.557C190.985 141.864 188.723 139.862 186.77 137.551C184.816 135.207 183.173 132.668 181.838 129.934C180.536 127.199 179.543 124.318 178.859 121.291C178.208 118.264 177.883 115.188 177.883 112.062ZM255.227 144.094C256.854 143.671 258.189 143.28 259.23 142.922C260.272 142.531 261.086 142.01 261.672 141.359C262.29 140.708 262.714 139.846 262.941 138.771C263.169 137.665 263.283 136.184 263.283 134.328V79.8359L255.227 77.248V73.293H268.703C269.81 73.293 270.819 73.2767 271.73 73.2441C272.642 73.179 273.537 73.1139 274.416 73.0488C275.295 72.9837 276.19 72.9023 277.102 72.8047C278.046 72.707 279.12 72.6257 280.324 72.5605C281.529 72.4954 282.896 72.4466 284.426 72.4141C285.988 72.349 287.827 72.3164 289.943 72.3164C292.971 72.3164 295.754 72.707 298.293 73.4883C300.865 74.237 303.062 75.3763 304.885 76.9062C306.74 78.4362 308.189 80.373 309.23 82.7168C310.272 85.028 310.793 87.7461 310.793 90.8711C310.793 93.3776 310.354 95.8841 309.475 98.3906C308.596 100.897 307.375 103.208 305.812 105.324C304.283 107.44 302.476 109.263 300.393 110.793C298.309 112.29 296.047 113.299 293.605 113.82C293.996 114.732 294.484 115.806 295.07 117.043C295.689 118.28 296.389 119.598 297.17 120.998C297.951 122.398 298.814 123.83 299.758 125.295C300.734 126.727 301.776 128.127 302.883 129.494C304.445 131.447 306.057 133.319 307.717 135.109C309.377 136.867 311.021 138.462 312.648 139.895C314.276 141.327 315.887 142.564 317.482 143.605C319.11 144.647 320.656 145.396 322.121 145.852L322.072 148.342C320.933 148.342 319.663 148.342 318.264 148.342C316.864 148.342 315.594 148.326 314.455 148.293C313.316 148.293 312.176 148.244 311.037 148.146C309.898 148.081 308.791 147.935 307.717 147.707C305.959 147.382 304.38 146.763 302.98 145.852C301.613 144.94 300.344 143.833 299.172 142.531C298.033 141.229 296.942 139.797 295.9 138.234C294.891 136.639 293.833 134.995 292.727 133.303C291.848 131.903 291.018 130.487 290.236 129.055C289.488 127.59 288.755 126.109 288.039 124.611C287.323 123.081 286.607 121.535 285.891 119.973C285.174 118.378 284.426 116.766 283.645 115.139C282.473 115.106 281.105 115.025 279.543 114.895C277.98 114.764 276.076 114.553 273.83 114.26V141.555L283.01 144.094V147.951H255.227V144.094ZM273.83 109.133C275.555 109.458 277.362 109.686 279.25 109.816C281.138 109.914 282.993 109.898 284.816 109.768C286.672 109.605 288.43 109.328 290.09 108.938C291.783 108.547 293.28 107.993 294.582 107.277C295.331 106.561 296.047 105.764 296.73 104.885C297.414 104.006 298.016 102.997 298.537 101.857C299.058 100.718 299.465 99.4323 299.758 98C300.083 96.5352 300.246 94.875 300.246 93.0195C300.246 90.5456 299.807 88.332 298.928 86.3789C298.081 84.4258 296.893 82.7819 295.363 81.4473C293.833 80.0801 292.01 79.0384 289.895 78.3223C287.779 77.6061 285.467 77.248 282.961 77.248C280.812 77.248 279.12 77.4108 277.883 77.7363C276.678 78.0293 275.767 78.5827 275.148 79.3965C274.562 80.2103 274.188 81.3333 274.025 82.7656C273.895 84.1654 273.83 85.9557 273.83 88.1367V109.133ZM326.125 112.258C326.125 108.97 326.483 105.699 327.199 102.443C327.915 99.1882 328.973 96.0794 330.373 93.1172C331.805 90.1549 333.563 87.4043 335.646 84.8652C337.762 82.3262 340.204 80.1289 342.971 78.2734C345.77 76.418 348.895 74.9694 352.346 73.9277C355.829 72.8535 359.621 72.3164 363.723 72.3164C367.759 72.3164 371.454 72.7884 374.807 73.7324C378.192 74.6764 381.203 75.9948 383.84 77.6875C386.509 79.3802 388.837 81.3822 390.822 83.6934C392.808 86.0046 394.452 88.5273 395.754 91.2617C397.089 93.9961 398.081 96.877 398.732 99.9043C399.383 102.932 399.709 106.008 399.709 109.133C399.709 112.421 399.351 115.692 398.635 118.947C397.919 122.202 396.844 125.311 395.412 128.273C394.012 131.203 392.255 133.938 390.139 136.477C388.023 139.016 385.565 141.213 382.766 143.068C379.999 144.891 376.874 146.34 373.391 147.414C369.94 148.456 366.164 148.977 362.062 148.977C358.026 148.977 354.331 148.505 350.979 147.561C347.626 146.617 344.615 145.314 341.945 143.654C339.276 141.962 336.949 139.96 334.963 137.648C332.977 135.337 331.333 132.831 330.031 130.129C328.729 127.395 327.753 124.514 327.102 121.486C326.451 118.459 326.125 115.383 326.125 112.258ZM337.014 107.18C337.014 110.044 337.258 112.893 337.746 115.725C338.267 118.557 339.032 121.258 340.041 123.83C341.083 126.402 342.385 128.794 343.947 131.008C345.542 133.221 347.414 135.142 349.562 136.77C351.711 138.365 354.169 139.618 356.936 140.529C359.702 141.441 362.779 141.896 366.164 141.896C368.996 141.896 371.665 141.522 374.172 140.773C376.711 140.025 379.006 139.048 381.057 137.844C382.359 136.053 383.498 134.182 384.475 132.229C385.451 130.243 386.249 128.241 386.867 126.223C387.518 124.172 388.007 122.137 388.332 120.119C388.658 118.101 388.82 116.132 388.82 114.211C388.82 111.346 388.56 108.498 388.039 105.666C387.551 102.834 386.786 100.132 385.744 97.5605C384.735 94.9564 383.433 92.5638 381.838 90.3828C380.275 88.1693 378.404 86.2487 376.223 84.6211C374.074 82.9935 371.617 81.724 368.85 80.8125C366.083 79.901 363.007 79.4453 359.621 79.4453C356.789 79.4453 354.104 79.8522 351.564 80.666C349.058 81.4473 346.779 82.4889 344.729 83.791C343.426 85.5814 342.287 87.4531 341.311 89.4062C340.334 91.3268 339.52 93.2962 338.869 95.3145C338.251 97.3001 337.779 99.3021 337.453 101.32C337.16 103.339 337.014 105.292 337.014 107.18Z" fill="white"/>
<path d="M412.375 140.875H409.938V143.396H412.375V140.875Z" fill="white"/>
<path d="M397.75 138.354H395.312V140.875H397.75V138.354Z" fill="white"/>
<path d="M427 134.573H424.562V137.094H427V134.573Z" fill="white"/>
<path d="M467.219 134.573H464.781V137.094H467.219V134.573Z" fill="white"/>
<path d="M485.5 137.094H483.062V139.615H485.5V137.094Z" fill="white"/>
<path d="M495.25 142.135H492.812V144.656H495.25V142.135Z" fill="white"/>
<path d="M502.563 149.698L479.724 147.212L476.425 149.487C476.383 149.516 476.34 149.543 476.295 149.566L473.857 150.826L472.767 148.571L475.136 147.346L477.105 145.989L472.094 143.396H464.067L459.549 148.068C459.321 148.305 459.01 148.437 458.688 148.437H456.25V145.917H458.183L461.928 142.043L457.469 138.354H448.938V128.239C469.911 127.571 486.719 109.791 486.719 87.9375C465.588 87.9375 448.395 105.32 447.749 127.01H446.468C445.824 105.32 428.631 87.9375 407.5 87.9375C407.5 109.791 424.308 127.571 445.281 128.239V138.354H435.531L431.267 141.882L433.769 143.608C433.946 143.73 434.088 143.896 434.183 144.093L435.066 145.917H439.188V148.437H434.313C433.851 148.437 433.429 148.168 433.222 147.74L432.148 145.518L429.068 143.396H420.906L414.702 146.146L417.981 148.69L416.519 150.706L412.022 147.217L390.438 149.698L390.401 153.479H502.563V149.698ZM482.201 90.8276L483.924 92.6099L453.455 124.12L451.732 122.338L482.201 90.8276ZM442.002 124.14L413.97 96.4113L415.656 94.59L443.687 122.319L442.002 124.14Z" fill="white"/>
<path d="M428.219 49.9977V58.9479C428.219 59.3449 428.399 59.718 428.706 59.9562L437.969 67.1406V95.5H440.406V66.5104C440.406 66.1134 440.226 65.7403 439.919 65.5021L430.656 58.3177V49.9977C433.437 49.4141 435.531 46.8719 435.531 43.8229C435.531 40.3429 432.802 37.5208 429.438 37.5208C426.073 37.5208 423.344 40.3429 423.344 43.8229C423.344 46.8719 425.438 49.4141 428.219 49.9977ZM429.438 42.5625C430.11 42.5625 430.656 43.1272 430.656 43.8229C430.656 44.5187 430.11 45.0833 429.438 45.0833C428.765 45.0833 428.219 44.5187 428.219 43.8229C428.219 43.1272 428.765 42.5625 429.438 42.5625Z" fill="white"/>
<path d="M456.25 65.9243L463.02 61.257C463.359 61.0226 463.562 60.6293 463.562 60.2083V49.9977C466.344 49.4141 468.438 46.8719 468.438 43.8229C468.438 40.3429 465.709 37.5208 462.344 37.5208C458.979 37.5208 456.25 40.3429 456.25 43.8229C456.25 46.8719 458.344 49.4141 461.125 49.9977V59.534L454.355 64.2013C454.016 64.4358 453.812 64.829 453.812 65.25V95.5H456.25V65.9243ZM462.344 42.5625C463.016 42.5625 463.562 43.1272 463.562 43.8229C463.562 44.5187 463.016 45.0833 462.344 45.0833C461.671 45.0833 461.125 44.5187 461.125 43.8229C461.125 43.1272 461.671 42.5625 462.344 42.5625Z" fill="white"/>
<path d="M473.312 66.3831V71.5521H463.562C462.89 71.5521 462.344 72.1167 462.344 72.8125V87.9375H464.781V74.0729H474.531C475.204 74.0729 475.75 73.5082 475.75 72.8125V66.3831C478.531 65.7995 480.625 63.2573 480.625 60.2083C480.625 56.7283 477.896 53.9062 474.531 53.9062C471.166 53.9062 468.438 56.7283 468.438 60.2083C468.438 63.2573 470.531 65.7995 473.312 66.3831ZM474.531 58.9479C475.204 58.9479 475.75 59.5126 475.75 60.2083C475.75 60.9041 475.204 61.4687 474.531 61.4687C473.859 61.4687 473.312 60.9041 473.312 60.2083C473.312 59.5126 473.859 58.9479 474.531 58.9479Z" fill="white"/>
<path d="M417.25 65.1227V72.8125C417.25 73.5082 417.796 74.0729 418.469 74.0729H428.219V86.6771H430.656V72.8125C430.656 72.1167 430.11 71.5521 429.438 71.5521H419.688V65.1227C422.469 64.5391 424.562 61.9969 424.562 58.9479C424.562 55.4679 421.834 52.6458 418.469 52.6458C415.104 52.6458 412.375 55.4679 412.375 58.9479C412.375 61.9969 414.469 64.5391 417.25 65.1227ZM418.469 57.6875C419.141 57.6875 419.688 58.2522 419.688 58.9479C419.688 59.6437 419.141 60.2083 418.469 60.2083C417.796 60.2083 417.25 59.6437 417.25 58.9479C417.25 58.2522 417.796 57.6875 418.469 57.6875Z" fill="white"/>
<path d="M445.891 61.3414V99.2812H448.328V61.3414C451.109 60.7579 453.203 58.2156 453.203 55.1667C453.203 51.6867 450.474 48.8646 447.109 48.8646C443.744 48.8646 441.016 51.6867 441.016 55.1667C441.016 58.2156 443.109 60.7579 445.891 61.3414ZM447.109 53.9062C447.782 53.9062 448.328 54.4709 448.328 55.1667C448.328 55.8624 447.782 56.4271 447.109 56.4271C446.437 56.4271 445.891 55.8624 445.891 55.1667C445.891 54.4709 446.437 53.9062 447.109 53.9062Z" fill="white"/>
</svg>
