<svg width="633" height="226" viewBox="0 0 633 226" fill="none" xmlns="http://www.w3.org/2000/svg">
<rect width="633" height="226" fill="#00A066"/>
<path d="M160.883 112.062C160.883 108.807 161.273 105.568 162.055 102.346C162.836 99.0905 163.975 95.998 165.473 93.0684C166.97 90.1061 168.809 87.3717 170.99 84.8652C173.204 82.3262 175.727 80.1289 178.559 78.2734C181.391 76.418 184.516 74.9694 187.934 73.9277C191.352 72.8535 195.046 72.3164 199.018 72.3164C202.468 72.3164 205.707 72.5605 208.734 73.0488C211.794 73.5046 214.496 74.0091 216.84 74.5625C219.574 75.2135 222.097 75.9622 224.408 76.8086L222.553 95.2656H217.523L215.082 84.6699C213.747 83.5957 212.266 82.7331 210.639 82.082C209.011 81.431 207.286 80.9264 205.463 80.5684C203.673 80.2103 201.833 79.9824 199.945 79.8848C198.057 79.7546 196.218 79.6895 194.428 79.6895C193.093 79.6895 191.71 79.8359 190.277 80.1289C188.845 80.3893 187.445 80.7799 186.078 81.3008C184.711 81.7891 183.441 82.375 182.27 83.0586C181.098 83.7096 180.105 84.4258 179.291 85.207C178.217 86.6068 177.208 88.1367 176.264 89.7969C175.352 91.4245 174.555 93.1986 173.871 95.1191C173.188 97.0072 172.65 99.0254 172.26 101.174C171.869 103.29 171.674 105.52 171.674 107.863C171.674 110.826 171.934 113.723 172.455 116.555C172.976 119.387 173.741 122.056 174.75 124.562C175.792 127.069 177.094 129.396 178.656 131.545C180.219 133.661 182.025 135.484 184.076 137.014C186.127 138.544 188.422 139.748 190.961 140.627C193.533 141.473 196.348 141.896 199.408 141.896C201.101 141.896 202.566 141.864 203.803 141.799C205.072 141.734 206.212 141.636 207.221 141.506C208.262 141.343 209.239 141.132 210.15 140.871C211.094 140.611 212.087 140.285 213.129 139.895V120.217L203.998 117.531V113.479H228.461V117.531C227.712 117.727 227.029 117.954 226.41 118.215C225.792 118.443 225.255 118.736 224.799 119.094C224.376 119.452 224.034 119.891 223.773 120.412C223.513 120.9 223.383 121.503 223.383 122.219V132.424L223.773 142.189C220.486 144.045 217.263 145.445 214.105 146.389C210.98 147.3 208.132 147.951 205.561 148.342C203.021 148.732 200.873 148.928 199.115 148.928C197.39 148.96 196.316 148.977 195.893 148.977C192.051 148.977 188.52 148.505 185.297 147.561C182.074 146.584 179.161 145.249 176.557 143.557C173.985 141.864 171.723 139.862 169.77 137.551C167.816 135.207 166.173 132.668 164.838 129.934C163.536 127.199 162.543 124.318 161.859 121.291C161.208 118.264 160.883 115.188 160.883 112.062ZM238.227 144.094C239.854 143.671 241.189 143.28 242.23 142.922C243.272 142.531 244.086 142.01 244.672 141.359C245.29 140.708 245.714 139.846 245.941 138.771C246.169 137.665 246.283 136.184 246.283 134.328V79.8359L238.227 77.248V73.293H251.703C252.81 73.293 253.819 73.2767 254.73 73.2441C255.642 73.179 256.537 73.1139 257.416 73.0488C258.295 72.9837 259.19 72.9023 260.102 72.8047C261.046 72.707 262.12 72.6257 263.324 72.5605C264.529 72.4954 265.896 72.4466 267.426 72.4141C268.988 72.349 270.827 72.3164 272.943 72.3164C275.971 72.3164 278.754 72.707 281.293 73.4883C283.865 74.237 286.062 75.3763 287.885 76.9062C289.74 78.4362 291.189 80.373 292.23 82.7168C293.272 85.028 293.793 87.7461 293.793 90.8711C293.793 93.3776 293.354 95.8841 292.475 98.3906C291.596 100.897 290.375 103.208 288.812 105.324C287.283 107.44 285.476 109.263 283.393 110.793C281.309 112.29 279.047 113.299 276.605 113.82C276.996 114.732 277.484 115.806 278.07 117.043C278.689 118.28 279.389 119.598 280.17 120.998C280.951 122.398 281.814 123.83 282.758 125.295C283.734 126.727 284.776 128.127 285.883 129.494C287.445 131.447 289.057 133.319 290.717 135.109C292.377 136.867 294.021 138.462 295.648 139.895C297.276 141.327 298.887 142.564 300.482 143.605C302.11 144.647 303.656 145.396 305.121 145.852L305.072 148.342C303.933 148.342 302.663 148.342 301.264 148.342C299.864 148.342 298.594 148.326 297.455 148.293C296.316 148.293 295.176 148.244 294.037 148.146C292.898 148.081 291.791 147.935 290.717 147.707C288.959 147.382 287.38 146.763 285.98 145.852C284.613 144.94 283.344 143.833 282.172 142.531C281.033 141.229 279.942 139.797 278.9 138.234C277.891 136.639 276.833 134.995 275.727 133.303C274.848 131.903 274.018 130.487 273.236 129.055C272.488 127.59 271.755 126.109 271.039 124.611C270.323 123.081 269.607 121.535 268.891 119.973C268.174 118.378 267.426 116.766 266.645 115.139C265.473 115.106 264.105 115.025 262.543 114.895C260.98 114.764 259.076 114.553 256.83 114.26V141.555L266.01 144.094V147.951H238.227V144.094ZM256.83 109.133C258.555 109.458 260.362 109.686 262.25 109.816C264.138 109.914 265.993 109.898 267.816 109.768C269.672 109.605 271.43 109.328 273.09 108.938C274.783 108.547 276.28 107.993 277.582 107.277C278.331 106.561 279.047 105.764 279.73 104.885C280.414 104.006 281.016 102.997 281.537 101.857C282.058 100.718 282.465 99.4323 282.758 98C283.083 96.5352 283.246 94.875 283.246 93.0195C283.246 90.5456 282.807 88.332 281.928 86.3789C281.081 84.4258 279.893 82.7819 278.363 81.4473C276.833 80.0801 275.01 79.0384 272.895 78.3223C270.779 77.6061 268.467 77.248 265.961 77.248C263.812 77.248 262.12 77.4108 260.883 77.7363C259.678 78.0293 258.767 78.5827 258.148 79.3965C257.562 80.2103 257.188 81.3333 257.025 82.7656C256.895 84.1654 256.83 85.9557 256.83 88.1367V109.133ZM309.125 112.258C309.125 108.97 309.483 105.699 310.199 102.443C310.915 99.1882 311.973 96.0794 313.373 93.1172C314.805 90.1549 316.563 87.4043 318.646 84.8652C320.762 82.3262 323.204 80.1289 325.971 78.2734C328.77 76.418 331.895 74.9694 335.346 73.9277C338.829 72.8535 342.621 72.3164 346.723 72.3164C350.759 72.3164 354.454 72.7884 357.807 73.7324C361.192 74.6764 364.203 75.9948 366.84 77.6875C369.509 79.3802 371.837 81.3822 373.822 83.6934C375.808 86.0046 377.452 88.5273 378.754 91.2617C380.089 93.9961 381.081 96.877 381.732 99.9043C382.383 102.932 382.709 106.008 382.709 109.133C382.709 112.421 382.351 115.692 381.635 118.947C380.919 122.202 379.844 125.311 378.412 128.273C377.012 131.203 375.255 133.938 373.139 136.477C371.023 139.016 368.565 141.213 365.766 143.068C362.999 144.891 359.874 146.34 356.391 147.414C352.94 148.456 349.164 148.977 345.062 148.977C341.026 148.977 337.331 148.505 333.979 147.561C330.626 146.617 327.615 145.314 324.945 143.654C322.276 141.962 319.949 139.96 317.963 137.648C315.977 135.337 314.333 132.831 313.031 130.129C311.729 127.395 310.753 124.514 310.102 121.486C309.451 118.459 309.125 115.383 309.125 112.258ZM320.014 107.18C320.014 110.044 320.258 112.893 320.746 115.725C321.267 118.557 322.032 121.258 323.041 123.83C324.083 126.402 325.385 128.794 326.947 131.008C328.542 133.221 330.414 135.142 332.562 136.77C334.711 138.365 337.169 139.618 339.936 140.529C342.702 141.441 345.779 141.896 349.164 141.896C351.996 141.896 354.665 141.522 357.172 140.773C359.711 140.025 362.006 139.048 364.057 137.844C365.359 136.053 366.498 134.182 367.475 132.229C368.451 130.243 369.249 128.241 369.867 126.223C370.518 124.172 371.007 122.137 371.332 120.119C371.658 118.101 371.82 116.132 371.82 114.211C371.82 111.346 371.56 108.498 371.039 105.666C370.551 102.834 369.786 100.132 368.744 97.5605C367.735 94.9564 366.433 92.5638 364.838 90.3828C363.275 88.1693 361.404 86.2487 359.223 84.6211C357.074 82.9935 354.617 81.724 351.85 80.8125C349.083 79.901 346.007 79.4453 342.621 79.4453C339.789 79.4453 337.104 79.8522 334.564 80.666C332.058 81.4473 329.779 82.4889 327.729 83.791C326.426 85.5814 325.287 87.4531 324.311 89.4062C323.334 91.3268 322.52 93.2962 321.869 95.3145C321.251 97.3001 320.779 99.3021 320.453 101.32C320.16 103.339 320.014 105.292 320.014 107.18Z" fill="white"/>
<path d="M398.375 143.875H395.938V146.396H398.375V143.875Z" fill="white"/>
<path d="M383.75 141.354H381.312V143.875H383.75V141.354Z" fill="white"/>
<path d="M413 137.573H410.562V140.094H413V137.573Z" fill="white"/>
<path d="M453.219 137.573H450.781V140.094H453.219V137.573Z" fill="white"/>
<path d="M471.5 140.094H469.062V142.615H471.5V140.094Z" fill="white"/>
<path d="M481.25 145.135H478.812V147.656H481.25V145.135Z" fill="white"/>
<path d="M488.563 152.698L465.724 150.212L462.425 152.487C462.383 152.516 462.34 152.543 462.295 152.566L459.857 153.826L458.767 151.571L461.136 150.346L463.105 148.989L458.094 146.396H450.067L445.549 151.068C445.321 151.305 445.01 151.437 444.688 151.437H442.25V148.917H444.183L447.928 145.043L443.469 141.354H434.938V131.239C455.911 130.571 472.719 112.791 472.719 90.9375C451.588 90.9375 434.395 108.32 433.749 130.01H432.468C431.824 108.32 414.631 90.9375 393.5 90.9375C393.5 112.791 410.308 130.571 431.281 131.239V141.354H421.531L417.267 144.882L419.769 146.608C419.946 146.73 420.088 146.896 420.183 147.093L421.066 148.917H425.188V151.437H420.313C419.851 151.437 419.429 151.168 419.222 150.74L418.148 148.518L415.068 146.396H406.906L400.702 149.146L403.981 151.69L402.519 153.706L398.022 150.217L376.438 152.698L376.401 156.479H488.563V152.698ZM468.201 93.8276L469.924 95.6099L439.455 127.12L437.732 125.338L468.201 93.8276ZM428.002 127.14L399.97 99.4113L401.656 97.59L429.687 125.319L428.002 127.14Z" fill="white"/>
<path d="M414.219 52.9977V61.9479C414.219 62.3449 414.399 62.718 414.706 62.9562L423.969 70.1406V98.5H426.406V69.5104C426.406 69.1134 426.226 68.7403 425.919 68.5021L416.656 61.3177V52.9977C419.437 52.4141 421.531 49.8719 421.531 46.8229C421.531 43.3429 418.802 40.5208 415.438 40.5208C412.073 40.5208 409.344 43.3429 409.344 46.8229C409.344 49.8719 411.438 52.4141 414.219 52.9977ZM415.438 45.5625C416.11 45.5625 416.656 46.1272 416.656 46.8229C416.656 47.5187 416.11 48.0833 415.438 48.0833C414.765 48.0833 414.219 47.5187 414.219 46.8229C414.219 46.1272 414.765 45.5625 415.438 45.5625Z" fill="white"/>
<path d="M442.25 68.9243L449.02 64.257C449.359 64.0226 449.562 63.6293 449.562 63.2083V52.9977C452.344 52.4141 454.438 49.8719 454.438 46.8229C454.438 43.3429 451.709 40.5208 448.344 40.5208C444.979 40.5208 442.25 43.3429 442.25 46.8229C442.25 49.8719 444.344 52.4141 447.125 52.9977V62.534L440.355 67.2013C440.016 67.4358 439.812 67.829 439.812 68.25V98.5H442.25V68.9243ZM448.344 45.5625C449.016 45.5625 449.562 46.1272 449.562 46.8229C449.562 47.5187 449.016 48.0833 448.344 48.0833C447.671 48.0833 447.125 47.5187 447.125 46.8229C447.125 46.1272 447.671 45.5625 448.344 45.5625Z" fill="white"/>
<path d="M459.312 69.3831V74.5521H449.562C448.89 74.5521 448.344 75.1167 448.344 75.8125V90.9375H450.781V77.0729H460.531C461.204 77.0729 461.75 76.5082 461.75 75.8125V69.3831C464.531 68.7995 466.625 66.2573 466.625 63.2083C466.625 59.7283 463.896 56.9062 460.531 56.9062C457.166 56.9062 454.438 59.7283 454.438 63.2083C454.438 66.2573 456.531 68.7995 459.312 69.3831ZM460.531 61.9479C461.204 61.9479 461.75 62.5126 461.75 63.2083C461.75 63.9041 461.204 64.4687 460.531 64.4687C459.859 64.4687 459.312 63.9041 459.312 63.2083C459.312 62.5126 459.859 61.9479 460.531 61.9479Z" fill="white"/>
<path d="M403.25 68.1227V75.8125C403.25 76.5082 403.796 77.0729 404.469 77.0729H414.219V89.6771H416.656V75.8125C416.656 75.1167 416.11 74.5521 415.438 74.5521H405.688V68.1227C408.469 67.5391 410.562 64.9969 410.562 61.9479C410.562 58.4679 407.834 55.6458 404.469 55.6458C401.104 55.6458 398.375 58.4679 398.375 61.9479C398.375 64.9969 400.469 67.5391 403.25 68.1227ZM404.469 60.6875C405.141 60.6875 405.688 61.2522 405.688 61.9479C405.688 62.6437 405.141 63.2083 404.469 63.2083C403.796 63.2083 403.25 62.6437 403.25 61.9479C403.25 61.2522 403.796 60.6875 404.469 60.6875Z" fill="white"/>
<path d="M431.891 64.3414V102.281H434.328V64.3414C437.109 63.7579 439.203 61.2156 439.203 58.1667C439.203 54.6867 436.474 51.8646 433.109 51.8646C429.744 51.8646 427.016 54.6867 427.016 58.1667C427.016 61.2156 429.109 63.7579 431.891 64.3414ZM433.109 56.9062C433.782 56.9062 434.328 57.4709 434.328 58.1667C434.328 58.8624 433.782 59.4271 433.109 59.4271C432.437 59.4271 431.891 58.8624 431.891 58.1667C431.891 57.4709 432.437 56.9062 433.109 56.9062Z" fill="white"/>
</svg>
